<?xml version="1.0" encoding="utf-8"?>
<!-- Generator: Adobe Illustrator 16.0.0, SVG Export Plug-In . SVG Version: 6.00 Build 0)  -->
<!DOCTYPE svg PUBLIC "-//W3C//DTD SVG 1.1//EN" "http://www.w3.org/Graphics/SVG/1.1/DTD/svg11.dtd">
<svg version="1.1" id="Capa_1" xmlns="http://www.w3.org/2000/svg" xmlns:xlink="http://www.w3.org/1999/xlink" x="0px" y="0px"
	 width="792px" height="792.079px" viewBox="0 -105.722 792 792.079" enable-background="new 0 -105.722 792 792.079"
	 xml:space="preserve">
<g>
	<g>
		<path fill="#FFFFFF" d="M614.998,139.04c24.509-15.044,40.735-35.579,48.682-61.693c-23.841,12.647-47.59,21.323-71.309,26.115
			c-21.323-22.931-48.318-34.578-80.683-34.578c-31.635,0-58.357,11.101-80.165,32.697c-21.688,21.747-32.637,48.166-32.637,79.013
			c0,9.372,1.184,17.744,3.549,24.842c-93.299-3.185-170.523-41.889-231.368-116.381c-10.312,18.229-15.469,36.792-15.469,55.992
			c0,39.46,16.652,70.733,49.895,93.693c-18.957-1.608-35.669-6.399-49.895-14.256c0,28.178,8.28,51.715,24.872,72.432
			c16.652,20.503,38.035,33.578,64.15,39.159c-9.463,2.425-19.443,3.579-29.694,3.579c-9.463,0-16.167-0.79-20.141-2.519
			c6.977,22.961,20.141,41.585,39.158,55.842c18.958,14.315,40.766,21.868,65.273,22.535
			c-40.402,31.697-86.595,47.378-138.856,47.378c-12.8,0-21.869-0.183-27.359-1.153c51.472,33.426,108.768,50.016,172.161,50.016
			c64.878,0,122.205-16.438,172.1-49.319c49.896-32.695,86.717-73.037,110.376-120.535c23.779-47.438,35.549-96.817,35.549-148.38
			v-14.195c22.991-17.289,41.583-36.762,55.81-58.267C658.371,129.94,637.049,135.976,614.998,139.04z"/>
	</g>
</g>
</svg>
